<svg width="28" height="34" viewBox="0 0 28 34" fill="none" xmlns="http://www.w3.org/2000/svg">
<path d="M24.0384 33.9992H3.96106C1.77654 33.9992 0 32.5013 0 30.6594C0 30.6421 0.000571565 30.6252 0.0017144 30.6079L1.14283 12.7395C1.16112 10.9111 2.93023 9.42822 5.1039 9.42822H22.8955C25.0692 9.42822 26.8377 10.9111 26.8572 12.7395L27.9983 30.6079C27.9994 30.6252 28 30.6421 28 30.6594C27.9994 32.5013 26.2223 33.9992 24.0384 33.9992ZM2.28567 30.6821C2.29938 31.4505 3.04622 32.072 3.96106 32.072H24.0384C24.9538 32.072 25.6989 31.4505 25.7143 30.6821L24.5732 12.8195C24.5721 12.8021 24.5715 12.7853 24.5715 12.7679C24.5715 11.9894 23.8201 11.3554 22.8955 11.3554H5.1039C4.18049 11.3554 3.4285 11.9889 3.4285 12.7679C3.4285 12.7853 3.42793 12.8021 3.42679 12.8195L2.28567 30.6821Z" fill="#393531"/>
<path d="M19.0738 11.1431C18.443 11.1431 17.931 10.6311 17.931 10.0002V3.75863C17.931 2.97122 17.1813 2.5718 16.1333 2.5718H12.0551C11.6397 2.5718 10.5026 2.65694 10.5026 3.75863V10.0002C10.5026 10.6311 9.9906 11.1431 9.35975 11.1431C8.72891 11.1431 8.21692 10.6311 8.21692 10.0002V3.75863C8.21692 1.7141 9.66718 0.286133 12.0557 0.286133H16.1333C18.4464 0.286133 20.2167 1.68153 20.2167 3.75863V10.0002C20.2167 10.6311 19.7047 11.1431 19.0738 11.1431Z" fill="#393531"/>
</svg>
